<svg width="200" height="200" viewBox="0 0 200 200" fill="none" xmlns="http://www.w3.org/2000/svg">
<rect x="0.5" y="0.5" width="199" height="199" fill="white" stroke="#CECECE" stroke-dasharray="20 20"/>
<path d="M62.2871 170L61.3438 167.586H57.582L56.6328 170H55.4727L58.8418 161.744H60.1133L63.4297 170H62.2871ZM59.4629 162.588L59.4102 162.752C59.3125 163.076 59.168 163.492 58.9766 164L57.9219 166.713H61.0098L59.9492 163.988C59.8398 163.719 59.7305 163.414 59.6211 163.074L59.4629 162.588ZM68.2637 168.98C68.0684 169.387 67.8086 169.678 67.4844 169.854C67.1641 170.029 66.7656 170.117 66.2891 170.117C65.4883 170.117 64.8984 169.848 64.5195 169.309C64.1445 168.77 63.957 167.953 63.957 166.859C63.957 164.648 64.7344 163.543 66.2891 163.543C66.7695 163.543 67.1699 163.631 67.4902 163.807C67.8105 163.982 68.0684 164.262 68.2637 164.645H68.2754L68.2637 163.936V161.305H69.3184V168.693C69.3184 169.354 69.3301 169.789 69.3535 170H68.3457C68.334 169.938 68.3203 169.793 68.3047 169.566C68.293 169.34 68.2871 169.145 68.2871 168.98H68.2637ZM65.0645 166.824C65.0645 167.711 65.1816 168.346 65.416 168.729C65.6504 169.111 66.0312 169.303 66.5586 169.303C67.1562 169.303 67.5898 169.096 67.8594 168.682C68.1289 168.268 68.2637 167.625 68.2637 166.754C68.2637 165.914 68.1289 165.299 67.8594 164.908C67.5898 164.518 67.1602 164.322 66.5703 164.322C66.0391 164.322 65.6543 164.52 65.416 164.914C65.1816 165.305 65.0645 165.941 65.0645 166.824ZM74.9434 168.98C74.748 169.387 74.4883 169.678 74.1641 169.854C73.8438 170.029 73.4453 170.117 72.9688 170.117C72.168 170.117 71.5781 169.848 71.1992 169.309C70.8242 168.77 70.6367 167.953 70.6367 166.859C70.6367 164.648 71.4141 163.543 72.9688 163.543C73.4492 163.543 73.8496 163.631 74.1699 163.807C74.4902 163.982 74.748 164.262 74.9434 164.645H74.9551L74.9434 163.936V161.305H75.998V168.693C75.998 169.354 76.0098 169.789 76.0332 170H75.0254C75.0137 169.938 75 169.793 74.9844 169.566C74.9727 169.34 74.9668 169.145 74.9668 168.98H74.9434ZM71.7441 166.824C71.7441 167.711 71.8613 168.346 72.0957 168.729C72.3301 169.111 72.7109 169.303 73.2383 169.303C73.8359 169.303 74.2695 169.096 74.5391 168.682C74.8086 168.268 74.9434 167.625 74.9434 166.754C74.9434 165.914 74.8086 165.299 74.5391 164.908C74.2695 164.518 73.8398 164.322 73.25 164.322C72.7188 164.322 72.334 164.52 72.0957 164.914C71.8613 165.305 71.7441 165.941 71.7441 166.824ZM84.6523 170V165.98C84.6523 165.367 84.5684 164.943 84.4004 164.709C84.2324 164.475 83.9297 164.357 83.4922 164.357C83.043 164.357 82.6875 164.529 82.4258 164.873C82.1641 165.217 82.0332 165.701 82.0332 166.326V170H80.9844V165.014C80.9844 164.275 80.9727 163.824 80.9492 163.66H81.9453C81.9492 163.68 81.9531 163.732 81.957 163.818C81.9609 163.904 81.9648 164.004 81.9688 164.117C81.9766 164.227 81.9844 164.436 81.9922 164.744H82.0098C82.2363 164.295 82.4961 163.982 82.7891 163.807C83.082 163.631 83.4395 163.543 83.8613 163.543C84.3418 163.543 84.7207 163.639 84.998 163.83C85.2793 164.021 85.4746 164.326 85.584 164.744H85.6016C85.8203 164.318 86.084 164.012 86.3926 163.824C86.7051 163.637 87.082 163.543 87.5234 163.543C88.1641 163.543 88.6289 163.717 88.918 164.064C89.2109 164.412 89.3574 164.982 89.3574 165.775V170H88.3145V165.98C88.3145 165.367 88.2305 164.943 88.0625 164.709C87.8945 164.475 87.5918 164.357 87.1543 164.357C86.6934 164.357 86.334 164.529 86.0762 164.873C85.8223 165.213 85.6953 165.697 85.6953 166.326V170H84.6523ZM96.3184 166.824C96.3184 167.934 96.0742 168.76 95.5859 169.303C95.0977 169.846 94.3887 170.117 93.459 170.117C92.5332 170.117 91.834 169.836 91.3613 169.273C90.8887 168.707 90.6523 167.891 90.6523 166.824C90.6523 164.637 91.5996 163.543 93.4941 163.543C94.4629 163.543 95.1758 163.811 95.6328 164.346C96.0898 164.877 96.3184 165.703 96.3184 166.824ZM95.2109 166.824C95.2109 165.949 95.0801 165.314 94.8184 164.92C94.5605 164.521 94.125 164.322 93.5117 164.322C92.8945 164.322 92.4473 164.525 92.1699 164.932C91.8965 165.334 91.7598 165.965 91.7598 166.824C91.7598 167.66 91.8945 168.289 92.1641 168.711C92.4375 169.129 92.8652 169.338 93.4473 169.338C94.0801 169.338 94.5312 169.135 94.8008 168.729C95.0742 168.322 95.2109 167.688 95.2109 166.824ZM97.6602 170V165.137C97.6602 164.691 97.6484 164.199 97.625 163.66H98.6211C98.6523 164.379 98.668 164.811 98.668 164.955H98.6914C98.8594 164.412 99.0527 164.041 99.2715 163.842C99.4902 163.643 99.7988 163.543 100.197 163.543C100.338 163.543 100.48 163.562 100.625 163.602V164.568C100.484 164.529 100.297 164.51 100.062 164.51C99.625 164.51 99.291 164.699 99.0605 165.078C98.8301 165.453 98.7148 165.992 98.7148 166.695V170H97.6602ZM102.441 167.053C102.441 167.779 102.592 168.34 102.893 168.734C103.193 169.129 103.633 169.326 104.211 169.326C104.668 169.326 105.033 169.234 105.307 169.051C105.584 168.867 105.771 168.635 105.869 168.354L106.795 168.617C106.416 169.617 105.555 170.117 104.211 170.117C103.273 170.117 102.559 169.838 102.066 169.279C101.578 168.721 101.334 167.891 101.334 166.789C101.334 165.742 101.578 164.939 102.066 164.381C102.559 163.822 103.26 163.543 104.17 163.543C106.033 163.543 106.965 164.666 106.965 166.912V167.053H102.441ZM105.875 166.244C105.816 165.576 105.646 165.09 105.365 164.785C105.084 164.477 104.68 164.322 104.152 164.322C103.641 164.322 103.234 164.494 102.934 164.838C102.637 165.178 102.477 165.646 102.453 166.244H105.875ZM111.646 162.312V161.305H112.701V162.312H111.646ZM111.646 170V163.66H112.701V170H111.646ZM118.016 170V165.98C118.016 165.367 117.932 164.943 117.764 164.709C117.596 164.475 117.293 164.357 116.855 164.357C116.406 164.357 116.051 164.529 115.789 164.873C115.527 165.217 115.396 165.701 115.396 166.326V170H114.348V165.014C114.348 164.275 114.336 163.824 114.312 163.66H115.309C115.312 163.68 115.316 163.732 115.32 163.818C115.324 163.904 115.328 164.004 115.332 164.117C115.34 164.227 115.348 164.436 115.355 164.744H115.373C115.6 164.295 115.859 163.982 116.152 163.807C116.445 163.631 116.803 163.543 117.225 163.543C117.705 163.543 118.084 163.639 118.361 163.83C118.643 164.021 118.838 164.326 118.947 164.744H118.965C119.184 164.318 119.447 164.012 119.756 163.824C120.068 163.637 120.445 163.543 120.887 163.543C121.527 163.543 121.992 163.717 122.281 164.064C122.574 164.412 122.721 164.982 122.721 165.775V170H121.678V165.98C121.678 165.367 121.594 164.943 121.426 164.709C121.258 164.475 120.955 164.357 120.518 164.357C120.057 164.357 119.697 164.529 119.439 164.873C119.186 165.213 119.059 165.697 119.059 166.326V170H118.016ZM125.938 170.117C125.301 170.117 124.822 169.949 124.502 169.613C124.182 169.277 124.021 168.816 124.021 168.23C124.021 167.574 124.236 167.07 124.666 166.719C125.1 166.367 125.797 166.18 126.758 166.156L128.182 166.133V165.787C128.182 165.271 128.072 164.902 127.854 164.68C127.635 164.457 127.291 164.346 126.822 164.346C126.35 164.346 126.006 164.426 125.791 164.586C125.576 164.746 125.447 165.002 125.404 165.354L124.303 165.254C124.482 164.113 125.33 163.543 126.846 163.543C127.643 163.543 128.242 163.727 128.645 164.094C129.047 164.457 129.248 164.984 129.248 165.676V168.406C129.248 168.719 129.289 168.955 129.371 169.115C129.453 169.271 129.609 169.35 129.84 169.35C129.941 169.35 130.057 169.336 130.186 169.309V169.965C129.92 170.027 129.648 170.059 129.371 170.059C128.98 170.059 128.695 169.957 128.516 169.754C128.34 169.547 128.24 169.225 128.217 168.787H128.182C127.912 169.271 127.598 169.615 127.238 169.818C126.883 170.018 126.449 170.117 125.938 170.117ZM126.178 169.326C126.564 169.326 126.908 169.238 127.209 169.062C127.51 168.887 127.746 168.646 127.918 168.342C128.094 168.033 128.182 167.717 128.182 167.393V166.871L127.027 166.895C126.531 166.902 126.154 166.953 125.896 167.047C125.643 167.141 125.447 167.285 125.311 167.48C125.174 167.676 125.105 167.932 125.105 168.248C125.105 168.592 125.197 168.857 125.381 169.045C125.568 169.232 125.834 169.326 126.178 169.326ZM133.402 172.49C132.711 172.49 132.16 172.354 131.75 172.08C131.34 171.811 131.076 171.426 130.959 170.926L132.02 170.773C132.09 171.066 132.244 171.291 132.482 171.447C132.725 171.607 133.041 171.688 133.432 171.688C134.482 171.688 135.008 171.072 135.008 169.842V168.822H134.996C134.797 169.229 134.523 169.535 134.176 169.742C133.828 169.945 133.422 170.047 132.957 170.047C132.18 170.047 131.607 169.789 131.24 169.273C130.877 168.758 130.695 167.947 130.695 166.842C130.695 165.721 130.891 164.895 131.281 164.363C131.676 163.828 132.273 163.561 133.074 163.561C133.523 163.561 133.912 163.664 134.24 163.871C134.572 164.074 134.828 164.365 135.008 164.744H135.02C135.02 164.627 135.027 164.424 135.043 164.135C135.059 163.846 135.074 163.688 135.09 163.66H136.092C136.068 163.871 136.057 164.309 136.057 164.973V169.818C136.057 171.6 135.172 172.49 133.402 172.49ZM135.008 166.83C135.008 166.314 134.938 165.871 134.797 165.5C134.656 165.125 134.457 164.84 134.199 164.645C133.945 164.445 133.656 164.346 133.332 164.346C132.793 164.346 132.4 164.541 132.154 164.932C131.908 165.322 131.785 165.955 131.785 166.83C131.785 167.697 131.9 168.32 132.131 168.699C132.361 169.078 132.756 169.268 133.314 169.268C133.646 169.268 133.941 169.17 134.199 168.975C134.457 168.779 134.656 168.5 134.797 168.137C134.938 167.77 135.008 167.334 135.008 166.83ZM138.488 167.053C138.488 167.779 138.639 168.34 138.939 168.734C139.24 169.129 139.68 169.326 140.258 169.326C140.715 169.326 141.08 169.234 141.354 169.051C141.631 168.867 141.818 168.635 141.916 168.354L142.842 168.617C142.463 169.617 141.602 170.117 140.258 170.117C139.32 170.117 138.605 169.838 138.113 169.279C137.625 168.721 137.381 167.891 137.381 166.789C137.381 165.742 137.625 164.939 138.113 164.381C138.605 163.822 139.307 163.543 140.217 163.543C142.08 163.543 143.012 164.666 143.012 166.912V167.053H138.488ZM141.922 166.244C141.863 165.576 141.693 165.09 141.412 164.785C141.131 164.477 140.727 164.322 140.199 164.322C139.688 164.322 139.281 164.494 138.98 164.838C138.684 165.178 138.523 165.646 138.5 166.244H141.922Z" fill="#4D4D4D"/>
<path d="M120 96.6667H103.333V80H96.6667V96.6667H80V103.333H96.6667V120H103.333V103.333H120V96.6667Z" fill="#CECECE"/>
</svg>
