<svg width="62" height="20" viewBox="0 0 62 20" fill="none" xmlns="http://www.w3.org/2000/svg">
<path d="M32.0649 6.36811C32.0295 9.14305 34.5505 10.6915 36.4495 11.6122C38.4005 12.5568 39.0559 13.1626 39.0481 14.0074C39.0336 15.3002 37.4918 15.8708 36.0491 15.8929C33.5321 15.9317 32.0685 15.2168 30.9051 14.6761L29.9983 18.8975C31.1657 19.4327 33.3272 19.8994 35.5686 19.9199C40.8301 19.9199 44.2724 17.3358 44.291 13.3293C44.3116 8.2445 37.222 7.96305 37.2705 5.69028C37.2872 5.00113 37.9481 4.26571 39.3964 4.07872C40.1133 3.98426 42.0922 3.91197 44.3358 4.93992L45.2164 0.855585C44.0098 0.418476 42.4591 -7.82013e-05 40.5284 -7.82013e-05C35.5761 -7.82013e-05 32.093 2.6192 32.0649 6.36811ZM53.678 0.351728C52.7172 0.351728 51.9076 0.909319 51.5462 1.76498L44.0304 19.6199H49.2881L50.3343 16.7431H56.7591L57.366 19.6199H62L57.9562 0.351728H53.678ZM54.4135 5.55679L55.9308 12.7922H51.7753L54.4135 5.55679ZM25.6903 0.351969L21.546 19.6197H26.5561L30.6985 0.351488H25.6903V0.351969ZM18.2786 0.351488L13.0638 13.4664L10.9544 2.31534C10.7069 1.07052 9.7294 0.351728 8.64391 0.351728H0.119398L0 0.911247C1.75005 1.28908 3.73841 1.89848 4.94305 2.55052C5.68027 2.94884 5.89048 3.29703 6.13267 4.24354L10.128 19.6199H15.4225L23.5397 0.351728H18.2786" fill="url(#paint0_linear_47_3829)"/>
<defs>
<linearGradient id="paint0_linear_47_3829" x1="28.5039" y1="20.3195" x2="29.0776" y2="-0.138778" gradientUnits="userSpaceOnUse">
<stop stop-color="#222357"/>
<stop offset="1" stop-color="#254AA5"/>
</linearGradient>
</defs>
</svg>
