<svg width="74" height="74" viewBox="0 0 74 74" fill="none" xmlns="http://www.w3.org/2000/svg">
<circle cx="37" cy="37" r="36" fill="white" stroke="#979797"/>
<path fill-rule="evenodd" clip-rule="evenodd" d="M26 21H48C48.5523 21 49 21.4477 49 22V52.477L45 50L41 52L37 50L33 52L29 50L25 52.477V22C25 21.4477 25.4477 21 26 21ZM29 44H38V42H29V44ZM38 39H29V37H38V39ZM33 29C33 31.2091 34.7909 33 37 33C38.0609 33 39.0783 32.5786 39.8284 31.8284C40.5786 31.0783 41 30.0609 41 29C41 26.7909 39.2091 25 37 25C34.7909 25 33 26.7909 33 29ZM45 44H41V42H45V44ZM41 39H45V37H41V39Z" fill="#111111"/>
</svg>
