<svg width="74" height="74" viewBox="0 0 74 74" fill="none" xmlns="http://www.w3.org/2000/svg">
<circle cx="37" cy="37" r="36" fill="white" stroke="#979797"/>
<rect x="31" y="25" width="16" height="4" fill="#111111"/>
<path fill-rule="evenodd" clip-rule="evenodd" d="M28 31H48C48.552 31 49 31.448 49 32V48C49 48.552 48.552 49 48 49H29C26.791 49 25 47.209 25 45V30C25 28.343 26.343 27 28 27H29V29H28C27.449 29 27 29.449 27 30C27 30.551 27.449 31 28 31ZM41 40C41 41.105 41.895 42 43 42C44.105 42 45 41.105 45 40C45 38.895 44.105 38 43 38C41.895 38 41 38.895 41 40Z" fill="#111111"/>
</svg>
