<svg width="74" height="74" viewBox="0 0 74 74" fill="none" xmlns="http://www.w3.org/2000/svg">
<circle cx="37" cy="37" r="36" fill="white" stroke="#979797"/>
<circle cx="31.5" cy="46.5" r="2.5" fill="#111111"/>
<path d="M49 40H31.876L29.991 25.868C29.925 25.371 29.501 25 29 25H25V27H28.124L30.009 41.132C30.075 41.629 30.499 42 31 42H42.245L44.038 48.274C44.164 48.714 44.564 49 44.999 49C45.091 49 45.183 48.987 45.274 48.962C45.805 48.81 46.113 48.256 45.962 47.726L44.326 42H49V40Z" fill="#111111"/>
<path fill-rule="evenodd" clip-rule="evenodd" d="M34 25H47C47.553 25 48 25.447 48 26V37C48 37.553 47.553 38 47 38H34C33.447 38 33 37.553 33 37V26C33 25.447 33.447 25 34 25ZM38 30H43V28H38V30Z" fill="#111111"/>
</svg>
